<svg xmlns="http://www.w3.org/2000/svg">

  <symbol id="icon-nav-menu-1" viewBox="0 0 25 21" fill="none">
	<rect width="25.000000" height="21.000000" x="0.000000" y="0.000000"/>
	<rect width="24.000000" height="2.000000" x="0.500000" y="0.500000" stroke="currentColor" stroke-width="1.000000"/>
	<rect width="20.000000" height="3.000000" x="2.500000" y="5.500000" stroke="currentColor" stroke-width="1.000000"/>
	<rect width="20.000000" height="3.000000" x="2.500000" y="8.500000" stroke="currentColor" stroke-width="1.000000"/>
	<rect width="20.000000" height="3.000000" x="2.500000" y="11.500000" stroke="currentColor" stroke-width="1.000000"/>
	<rect width="20.000000" height="3.000000" x="2.500000" y="14.500000" stroke="currentColor" stroke-width="1.000000"/>
	<rect width="20.000000" height="3.000000" x="2.500000" y="17.500000" stroke="currentColor" stroke-width="1.000000"/>
	<path d="M0 6.45596e-08L4 0" stroke="currentColor" stroke-width="1.000000" transform="matrix(-1.62417e-08,1,-1,-2.94103e-08,4.5,2)"/>
	<line x1="0" x2="1" y1="0" y2="0" stroke="currentColor" stroke-width="1.000000" transform="matrix(-6.40346e-08,1,-1,2.59781e-08,4.5,6)"/>
	<line x1="0" x2="1" y1="0" y2="0" stroke="currentColor" stroke-width="1.000000" transform="matrix(-6.40346e-08,1,-1,2.59781e-08,4.5,9)"/>
	<line x1="0" x2="0.753768861" y1="0" y2="0" stroke="currentColor" stroke-width="1.000000" transform="matrix(-6.40346e-08,1,-1,2.59781e-08,4.5,11.0454)"/>
	<line x1="0" x2="0.753768861" y1="0" y2="0" stroke="currentColor" stroke-width="1.000000" transform="matrix(-5.97247e-08,1,-1,2.52392e-08,4.5,14.0605)"/>
	<line x1="0" x2="1" y1="0" y2="0" stroke="currentColor" stroke-width="1.000000" transform="matrix(-5.57464e-08,1,-1,2.45004e-08,4.5,18)"/>
	<line x1="0" x2="1" y1="0" y2="0" stroke="currentColor" stroke-width="1.000000" transform="matrix(-5.57464e-08,1,-1,2.45004e-08,4.5,15)"/>
	<line x1="0" x2="1" y1="0" y2="0" stroke="currentColor" stroke-width="1.000000" transform="matrix(-5.57464e-08,1,-1,2.45004e-08,4.5,12)"/>
	<path d="M0 1.76055e-07L3.5 -5.68461e-08" stroke="currentColor" stroke-width="1.000000" transform="matrix(-1.62417e-08,1,-1,-2.94103e-08,20.4999,2)"/>
	<line x1="0" x2="1" y1="0" y2="0" stroke="currentColor" stroke-width="1.000000" transform="matrix(-6.40346e-08,1,-1,2.59781e-08,20.4999,6)"/>
	<line x1="0" x2="1" y1="0" y2="0" stroke="currentColor" stroke-width="1.000000" transform="matrix(-6.40346e-08,1,-1,2.59781e-08,20.4999,9)"/>
	<line x1="0" x2="1" y1="0" y2="0" stroke="currentColor" stroke-width="1.000000" transform="matrix(-5.57464e-08,1,-1,2.45004e-08,20.4999,18)"/>
	<line x1="0" x2="1" y1="0" y2="0" stroke="currentColor" stroke-width="1.000000" transform="matrix(-5.57464e-08,1,-1,2.45004e-08,20.4999,15)"/>
	<line x1="0" x2="1" y1="0" y2="0" stroke="currentColor" stroke-width="1.000000" transform="matrix(-5.57464e-08,1,-1,2.45004e-08,20.4999,12)"/>
  </symbol>

  <symbol id="icon-nav-menu-2" viewBox="0 0 23.0004 26" fill="none">
    <rect width="22.000000" height="4.000000" x="0.500366" y="0.500000" rx="2.000000" stroke="currentColor" stroke-width="1.000000"/>
	<circle cx="2.50036621" cy="2.5" r="2" stroke="currentColor" stroke-width="1.000000"/>
	<path d="M0.20907 2.5L0 2.5L0 24L21 24L21 4.5L20 4.5L20 23L1 23L1 3.15423C0.666262 3.03512 0.386854 2.80124 0.20907 2.5Z" fill="currentColor" fill-rule="evenodd"/>
	<line x1="0" x2="2" y1="0" y2="0" stroke="currentColor" stroke-width="1.000000" transform="matrix(-4.37112e-08,1,-1,-4.37112e-08,10.5,24)"/>
	<line x1="1" x2="20.59799" y1="20.5" y2="20.5" stroke="currentColor" stroke-width="1.000000"/>
  </symbol>

  <symbol id="icon-nav-menu-3" viewBox="0 0 21 24" fill="none">
	<rect width="20.000000" height="23.000000" x="0.500000" y="0.500000" stroke="currentColor" stroke-width="1.000000"/>
	<rect width="16.000000" height="19.000000" x="2.500000" y="2.500000" stroke="currentColor" stroke-width="1.000000"/>
	<line x1="0" x2="11" y1="0" y2="0" stroke="currentColor" stroke-width="1.000000" transform="matrix(4.78744e-08,1,-1,3.99104e-08,5.5,7)"/>
	<line x1="0" x2="11" y1="0" y2="0" stroke="currentColor" stroke-width="1.000000" transform="matrix(4.78744e-08,1,-1,3.99104e-08,14.5,7)"/>
	<line x1="0" x2="2" y1="0" y2="0" stroke="currentColor" stroke-width="1.000000" transform="matrix(-1,1.22663e-16,-1.11022e-16,-1,4,11.5)"/>
	<line x1="0" x2="2" y1="0" y2="0" stroke="currentColor" stroke-width="1.000000" transform="matrix(-1,-4.52413e-07,4.52413e-07,-1,4,8.5)"/>
	<line x1="0" x2="3" y1="0" y2="0" stroke="currentColor" stroke-width="1.000000" transform="matrix(-1,-3.01609e-07,3.01609e-07,-1,18,8.5)"/>
	<line x1="0" x2="3" y1="0" y2="0" stroke="currentColor" stroke-width="1.000000" transform="matrix(-1,-3.01609e-07,3.01609e-07,-1,18,11.5)"/>
	<line x1="0" x2="8" y1="0" y2="0" stroke="currentColor" stroke-width="1.000000" transform="matrix(-8.2566e-08,1,-1,-2.31413e-08,8.5,3)"/>
	<line x1="0" x2="14.999999" y1="0" y2="0" stroke="currentColor" stroke-width="1.000000" transform="matrix(-8.2566e-08,1,-1,-2.31413e-08,11.5,3)"/>
	<line x1="0" x2="7" y1="0" y2="0" stroke="currentColor" stroke-width="1.000000" transform="matrix(-8.2566e-08,1,-1,-2.31413e-08,8.5,13)"/>
  </symbol>

  <symbol id="icon-nav-menu-4" viewBox="0 0 25 21.0752" fill="none">
	<path d="M22.0002 5.5L23.0604 2L1.95483 2L2.25352 3L3.00024 5.5L2.00024 8.5L3.00024 11.5L2.00024 14.5L3.00024 17.5L2.24723 20.0754L1.95483 21.0754L23.0604 21.0754L22.7639 20.0754L22.0002 17.5L23.0002 14.5L22.0002 11.5L23.0002 8.5L22.0002 5.5ZM21.9462 8.5L20.951 5.5145L21.7126 3L3.29718 3L4.04883 5.51652L3.05434 8.5L4.05434 11.5L3.05434 14.5L4.04783 17.4805L3.2891 20.0754L21.7208 20.0754L20.952 17.4824L21.9462 14.5L20.9462 11.5L21.9462 8.5Z" fill="currentColor" fill-rule="evenodd"/>
	<rect width="24.000000" height="2.000000" x="0.500000" y="0.500000" stroke="currentColor" stroke-width="1.000000"/>
	<path d="M3 5.5L21.5 5.5" stroke="currentColor" stroke-width="1.000000"/>
	<path d="M3.5 11.5L21.5 11.5" stroke="currentColor" stroke-width="1.000000"/>
	<line x1="2.70849609" x2="22.3064861" y1="14.5" y2="14.5" stroke="currentColor" stroke-width="1.000000"/>
	<line x1="2.70855713" x2="22.3065472" y1="20.5751953" y2="20.5751953" stroke="currentColor" stroke-width="1.000000"/>
	<line x1="3" x2="22.59799" y1="8.5" y2="8.5" stroke="currentColor" stroke-width="1.000000"/>
	<path d="M3.5 17.5L21.5 17.5" stroke="currentColor" stroke-width="1.000000"/>
  </symbol>

  <symbol id="icon-nav-menu-5" viewBox="0 0 25 25.0703" fill="none">
    <path d="M4.6972 16.0254L2.98125 16.0254C2.05622 16.0254 1.28169 16.7263 1.18965 17.6468L0.784778 21.6955C0.604071 23.5026 2.02313 25.0706 3.83923 25.0706C5.65532 25.0706 7.07438 23.5026 6.89367 21.6955L6.4888 17.6468C6.39676 16.7263 5.62223 16.0254 4.6972 16.0254ZM2.98125 17.0254L4.6972 17.0254C4.80002 17.0254 4.8962 17.0426 4.98572 17.0771C5.07525 17.1116 5.15813 17.1634 5.23436 17.2324C5.3106 17.3014 5.37033 17.3787 5.41357 17.4643C5.4568 17.55 5.48353 17.644 5.49376 17.7463L5.89864 21.795C5.9291 22.0996 5.90059 22.3848 5.81312 22.6506C5.72564 22.9164 5.5792 23.1627 5.3738 23.3897C5.16839 23.6167 4.93781 23.7869 4.68204 23.9004C4.42628 24.0139 4.14534 24.0706 3.83923 24.0706C3.53311 24.0706 3.25217 24.0139 2.9964 23.9004C2.74064 23.7869 2.51006 23.6167 2.30466 23.3897C2.09925 23.1627 1.95281 22.9164 1.86534 22.6506C1.77786 22.3848 1.74936 22.0996 1.77982 21.795L2.18469 17.7463C2.19492 17.644 2.22165 17.55 2.26488 17.4643C2.30812 17.3787 2.36785 17.3014 2.44409 17.2324C2.52032 17.1634 2.6032 17.1116 2.69273 17.0771C2.78226 17.0426 2.87843 17.0254 2.98125 17.0254Z" fill="currentColor" fill-rule="evenodd"/>
    <circle cx="3.83921051" cy="19.4172745" r="1.13065326" fill="currentColor"/>
    <rect width="24.000000" height="2.000000" x="0.500000" y="0.500000" stroke="currentColor" stroke-width="1.000000"/>
    <path d="M-7.10543e-15 0L19 0" stroke="currentColor" stroke-width="1.000000" transform="matrix(-4.37114e-08,1,-1,-4.37114e-08,22.5151,3)"/>
    <path d="M0 0L15 3.52247e-09" stroke="currentColor" stroke-width="1.000000" transform="matrix(-4.6726e-08,1,-1,-4.08913e-08,17.5302,5)"/>
    <line x1="0" x2="15.0753765" y1="0" y2="0" stroke="currentColor" stroke-width="1.000000" transform="matrix(-4.6726e-08,1,-1,-4.08913e-08,14.5,5)"/>
    <line x1="0" x2="15.0753765" y1="0" y2="0" stroke="currentColor" stroke-width="1.000000" transform="matrix(-4.6726e-08,1,-1,-4.08913e-08,11.5,5)"/>
    <path d="M2.13163e-14 6.92914e-07L14.0402 0" stroke="currentColor" stroke-width="1.000000" transform="matrix(-5.10703e-08,1,-1,-3.74128e-08,8.5,5)"/>
    <path d="M0 0L10 0" stroke="currentColor" stroke-width="1.000000" transform="matrix(-4.6971e-08,1,-1,-4.06779e-08,5.5,5)"/>
    <path d="M2.00012 14.9221L2.00012 4L20.9221 4L20.9221 22L8.00012 22L8.00012 21L20.4221 21L20.4221 21.5L19.9221 21.5L19.9221 4.5L20.4221 4.5L20.4221 5L2.50012 5L2.50012 4.5L3.00012 4.5L3.00012 14.9221L2.00012 14.9221Z" fill="currentColor" fill-rule="nonzero"/>
  </symbol>

  <symbol id="icon-nav-menu-6" viewBox="0 0 25 23" fill="none">
	<rect width="24.000000" height="2.000000" x="0.500000" y="20.500000" stroke="currentColor" stroke-width="1.000000"/>
	<rect width="20.000000" height="2.000000" x="2.500000" y="18.500000" stroke="currentColor" stroke-width="1.000000"/>
	<path d="M19.3442 8.13129C19.8244 8.79324 20.6288 9.5 21.875 9.5C24.2188 9.5 25 7.33333 25 7.33333L23 2L2 2L0 7.33333C0 7.33333 0.78125 9.5 3.125 9.5C4.37116 9.5 5.17561 8.79325 5.65576 8.1313C6.07867 7.54827 6.25 7 6.25 7C6.25 7 6.42133 7.54827 6.84424 8.1313C7.32439 8.79325 8.12884 9.5 9.375 9.5C10.6212 9.5 11.4256 8.79324 11.9058 8.13129C12.3287 7.54827 12.5 7 12.5 7C12.5 7 12.6713 7.54827 13.0942 8.13129C13.5744 8.79324 14.3788 9.5 15.625 9.5C16.8712 9.5 17.6756 8.79324 18.1558 8.13129C18.5787 7.54827 18.75 7 18.75 7C18.75 7 18.9213 7.54827 19.3442 8.13129ZM1.08363 7.29165L2.693 3L22.307 3L23.9164 7.29172C23.8288 7.43897 23.7146 7.59077 23.5736 7.74711C23.3517 7.99335 23.1023 8.17919 22.8256 8.30463C22.5382 8.43488 22.2214 8.5 21.875 8.5C21.647 8.5 21.4313 8.46466 21.2279 8.39397C20.8501 8.26269 20.5147 8.00948 20.2216 7.63436C19.9708 7.31337 19.7985 7.00249 19.7045 6.70173L17.7955 6.70173C17.7015 7.00249 17.5292 7.31337 17.2784 7.63436C16.9853 8.00948 16.6499 8.26269 16.2721 8.39397C16.0687 8.46466 15.853 8.5 15.625 8.5C15.397 8.5 15.1813 8.46466 14.9779 8.39397C14.6001 8.26268 14.2647 8.00948 13.9716 7.63436C13.7209 7.31337 13.5485 7.0025 13.4545 6.70173L11.5455 6.70173C11.4515 7.0025 11.2792 7.31337 11.0284 7.63436C10.7353 8.00948 10.3999 8.26268 10.0221 8.39397C9.81867 8.46466 9.60298 8.5 9.375 8.5C9.14702 8.5 8.93132 8.46466 8.72791 8.39397C8.35011 8.26268 8.01468 8.00948 7.72162 7.63436C7.47085 7.31337 7.29847 7.0025 7.20448 6.70173L5.29552 6.70173C5.20153 7.0025 5.02915 7.31337 4.77838 7.63436C4.48532 8.00948 4.14988 8.26268 3.77209 8.39397C3.56867 8.46466 3.35298 8.5 3.125 8.5C2.77862 8.5 2.46177 8.43488 2.17443 8.30464C1.89783 8.17926 1.64858 7.99354 1.42668 7.74747C1.28568 7.59112 1.17133 7.43918 1.08363 7.29165Z" fill="currentColor" fill-rule="evenodd"/>
	<line x1="0" x2="9" y1="0" y2="0" stroke="currentColor" stroke-width="1.000000" transform="matrix(4.37114e-08,1,-1,4.37114e-08,2.5,9)"/>
	<line x1="0" x2="9" y1="0" y2="0" stroke="currentColor" stroke-width="1.000000" transform="matrix(4.37114e-08,1,-1,4.37114e-08,22.5,9)"/>
	<rect width="20.000000" height="2.000000" x="2.500000" y="0.500000" stroke="currentColor" stroke-width="1.000000"/>
	<line x1="1" x2="24" y1="6.5" y2="6.5" stroke="currentColor" stroke-width="1.000000"/>
  </symbol>

  <symbol id="icon-nav-menu-7" viewBox="0 0 25 23" fill="none">
	<path d="M24 1L1 1L1 2L24 2L24 1ZM0 0L0 3L25 3L25 0L0 0Z" fill="currentColor" fill-rule="evenodd"/>
	<path d="M22 3L3 3L3 22L22 22L22 3ZM2 23L2 2L23 2L23 23L2 23Z" fill="currentColor" fill-rule="evenodd"/>
	<path d="M3.00006 12.7987C3.03637 12.7837 3.0725 12.7678 3.10841 12.751C3.46452 12.5851 3.79624 12.3381 4.08108 12.0176C4.36612 11.6969 4.59755 11.3101 4.75717 10.8766C4.9168 10.443 5.00006 9.97494 5.00006 9.5C5.00006 9.02506 4.9168 8.557 4.75717 8.12344C4.59755 7.68992 4.36612 7.30305 4.08108 6.98238C3.79624 6.66194 3.46452 6.4149 3.10841 6.24896C3.0725 6.23222 3.03637 6.21633 3.00006 6.20128L3.00006 12.7987ZM3.00006 13.8571C3.1805 13.8047 3.35786 13.738 3.53079 13.6575C4.0161 13.4313 4.45705 13.0998 4.82849 12.682C5.19992 12.2641 5.49456 11.768 5.69558 11.2221C5.8966 10.6761 6.00006 10.0909 6.00006 9.5C6.00006 8.90905 5.8966 8.32389 5.69558 7.77792C5.49456 7.23196 5.19992 6.73588 4.82849 6.31802C4.45705 5.90016 4.0161 5.56869 3.53079 5.34254C3.35786 5.26196 3.1805 5.19531 3.00006 5.14289C2.67414 5.04822 2.33817 5 2.00006 5L2.00006 14C2.33817 14 2.67414 13.9518 3.00006 13.8571Z" fill="currentColor" fill-rule="evenodd"/>
	<path d="M19.7988 22C19.7837 21.9637 19.7678 21.9276 19.7511 21.8916C19.5852 21.5355 19.3381 21.2038 19.0177 20.919C18.697 20.6339 18.3101 20.4025 17.8766 20.2429C17.4431 20.0833 16.975 20 16.5001 20C16.0251 20 15.5571 20.0833 15.1235 20.2429C14.69 20.4025 14.3031 20.6339 13.9824 20.919C13.662 21.2038 13.415 21.5355 13.249 21.8916C13.2323 21.9276 13.2164 21.9637 13.2013 22L19.7988 22ZM20.8572 22C20.8048 21.8196 20.7381 21.6422 20.6575 21.4693C20.4314 20.984 20.0999 20.543 19.682 20.1716C19.2642 19.8001 18.7681 19.5055 18.2221 19.3045C17.6762 19.1035 17.091 19 16.5001 19C15.9091 19 15.324 19.1035 14.778 19.3045C14.232 19.5055 13.7359 19.8001 13.3181 20.1716C12.9002 20.543 12.5687 20.984 12.3426 21.4693C12.262 21.6422 12.1954 21.8196 12.143 22C12.0483 22.3259 12.0001 22.6619 12.0001 23L21.0001 23C21.0001 22.6619 20.9518 22.3259 20.8572 22Z" fill="currentColor" fill-rule="evenodd"/>
	<path d="M18.5001 8C19.3285 8 20.0001 7.32843 20.0001 6.5C20.0001 5.67157 19.3285 5 18.5001 5C17.6716 5 17.0001 5.67157 17.0001 6.5C17.0001 7.32843 17.6716 8 18.5001 8ZM18.5001 9C19.8808 9 21.0001 7.88071 21.0001 6.5C21.0001 5.11929 19.8808 4 18.5001 4C17.1193 4 16.0001 5.11929 16.0001 6.5C16.0001 7.88071 17.1193 9 18.5001 9Z" fill="currentColor" fill-rule="evenodd"/>
	<path d="M6.50006 20C7.32849 20 8.00006 19.3284 8.00006 18.5C8.00006 17.6716 7.32849 17 6.50006 17C5.67163 17 5.00006 17.6716 5.00006 18.5C5.00006 19.3284 5.67163 20 6.50006 20ZM6.50006 21C7.88077 21 9.00006 19.8807 9.00006 18.5C9.00006 17.1193 7.88077 16 6.50006 16C5.11935 16 4.00006 17.1193 4.00006 18.5C4.00006 19.8807 5.11935 21 6.50006 21Z" fill="currentColor" fill-rule="evenodd"/>
	<path d="M14.5001 16C15.8808 16 17.0001 14.8807 17.0001 13.5C17.0001 12.1193 15.8808 11 14.5001 11C13.1193 11 12.0001 12.1193 12.0001 13.5C12.0001 14.8807 13.1193 16 14.5001 16ZM14.5001 17C16.4331 17 18.0001 15.433 18.0001 13.5C18.0001 11.567 16.4331 10 14.5001 10C12.5671 10 11.0001 11.567 11.0001 13.5C11.0001 15.433 12.5671 17 14.5001 17Z" fill="currentColor" fill-rule="evenodd"/>
	<path d="M19 1L0 1L0 0L19 0L19 1Z" fill="currentColor" fill-rule="evenodd" transform="matrix(-4.37114e-08,1,-1,-4.37114e-08,11.0001,3)"/>
	<path d="M19 1L0 1L0 0L19 0L19 1Z" fill="currentColor" fill-rule="evenodd" transform="matrix(6.12323e-17,1,-1,6.12323e-17,15.0001,3)"/>
	<path d="M19 1L0 1L0 0L19 0L19 1Z" fill="currentColor" fill-rule="evenodd" transform="matrix(-4.37114e-08,1,-1,-4.37114e-08,19.0001,3)"/>
	<path d="M19 1L0 1L0 0L19 0L19 1Z" fill="currentColor" fill-rule="evenodd" transform="matrix(6.12323e-17,1,-1,6.12323e-17,7.00006,3)"/>
  </symbol>

  <symbol id="icon-nav-menu-8" viewBox="0 0 20.8981 20.6196" fill="none">
	<path d="M5.13612 0.952918C5.5621 0.259951 6.38842 -0.129607 7.23267 0.039209L18.0077 2.19378C19.7165 2.53547 20.8982 4.03635 20.8982 5.71476C20.8982 5.94842 20.8753 6.18552 20.8277 6.42341C20.4384 8.37012 18.5448 9.63267 16.598 9.24341L15.6181 9.04746L15.6181 14.5894L17.382 14.5894L17.9096 16.4739L17.382 20.6196L7.88449 20.6196L7.35685 16.4739L7.88449 14.5894L9.61809 14.5894L9.61809 7.8477L5.82303 7.08884C4.97873 6.92002 4.36573 6.24259 4.23902 5.43904L3.86232 5.36371C2.91156 5.1736 2.25409 4.33852 2.25409 3.40467L2.25411 3.39598L0 2.94525L0.196078 1.96466L2.4141 2.40818C2.64765 1.34692 3.6891 0.663574 4.75937 0.877583L5.13612 0.952918ZM5.80822 6.04135L6.8162 1.00046C6.35873 1.01117 5.95341 1.33683 5.85993 1.80431L5.2346 4.93159C5.22137 4.99777 5.21499 5.06373 5.21499 5.12873C5.21499 5.52289 5.44925 5.88185 5.80822 6.04135ZM7.80154 1.17276L6.78405 6.26121L16.7941 8.26282C16.9894 8.30188 17.184 8.3179 17.3751 8.31275L18.3671 3.35166C18.1927 3.27346 18.0069 3.21342 17.8116 3.17436L7.80154 1.17276ZM18.448 8.04696C19.1463 7.7029 19.6827 7.04969 19.8471 6.22734C19.8814 6.05563 19.898 5.88449 19.898 5.71583C19.898 5.07677 19.6606 4.47336 19.2553 4.00962L18.448 8.04696ZM4.80954 1.90741L4.56329 1.85817C4.02173 1.74988 3.49492 2.10112 3.38662 2.64268L3.27389 3.20646C3.26066 3.27264 3.25429 3.3386 3.25429 3.4036C3.25429 3.87053 3.58302 4.28807 4.0584 4.38313L4.30465 4.43237L4.80954 1.90741ZM10.6181 8.0534L10.6181 14.5794L14.6181 14.5794L14.6181 8.85581L10.6181 8.0534ZM8.64295 15.5894L8.37441 16.5485L8.37834 16.5794L16.8881 16.5794L16.892 16.5485L16.6235 15.5894L8.64295 15.5894ZM8.50562 17.5794L8.76528 19.6196L16.5012 19.6196L16.7608 17.5794L8.50562 17.5794Z" fill="currentColor" fill-rule="evenodd"/>
  </symbol>

  <symbol id="icon-nav-menu-9" viewBox="0 0 21.1055 21.1055" fill="none">
	<path d="M12.847 1.99049L10.5528 0L8.25851 1.99049L5.27638 1.4138L4.28474 4.28474L1.4138 5.27638L1.99049 8.25851L0 10.5528L1.99049 12.847L1.4138 15.8291L4.28474 16.8208L5.27638 19.6917L8.25851 19.115L10.5528 21.1055L12.847 19.115L15.8291 19.6917L16.8208 16.8208L19.6917 15.8291L19.115 12.847L21.1055 10.5528L19.115 8.25851L19.6917 5.27638L16.8208 4.28474L15.8291 1.4138L12.847 1.99049ZM15.1672 2.56034L12.5592 3.06467L10.5528 1.3239L8.54634 3.06467L5.93833 2.56034L5.0711 5.0711L2.56034 5.93833L3.06467 8.54634L1.3239 10.5528L3.06467 12.5592L2.56034 15.1672L5.0711 16.0344L5.93833 18.5452L8.54634 18.0409L10.5528 19.7816L12.5592 18.0409L15.1672 18.5452L16.0344 16.0344L18.5452 15.1672L18.0409 12.5592L19.7816 10.5528L18.0409 8.54634L18.5452 5.93833L16.0344 5.0711L15.1672 2.56034Z" fill="currentColor" fill-rule="evenodd"/>
	<path d="M10.5527 15.583C13.3308 15.583 15.5829 13.3309 15.5829 10.5529C15.5829 7.77478 13.3308 5.52271 10.5527 5.52271C7.77466 5.52271 5.52258 7.77478 5.52258 10.5529C5.52258 13.3309 7.77466 15.583 10.5527 15.583ZM10.5527 16.583C13.8831 16.583 16.5829 13.8832 16.5829 10.5529C16.5829 7.2225 13.8831 4.52271 10.5527 4.52271C7.22237 4.52271 4.52258 7.2225 4.52258 10.5529C4.52258 13.8832 7.22237 16.583 10.5527 16.583Z" fill="currentColor" fill-rule="evenodd"/>
  </symbol>

  <symbol id="icon-nav-menu-10" viewBox="0 0 23 23" fill="none">
	<path d="M19 1L4 1C2.34315 1 1 2.34315 1 4L1 19C1 20.6569 2.34315 22 4 22L19 22C20.6569 22 22 20.6569 22 19L22 4C22 2.34315 20.6569 1 19 1ZM4 0C1.79086 0 0 1.79086 0 4L0 19C0 21.2091 1.79086 23 4 23L19 23C21.2091 23 23 21.2091 23 19L23 4C23 1.79086 21.2091 0 19 0L4 0Z" fill="currentColor" fill-rule="evenodd"/>
	<path d="M18.1031 14.8633L13.0176 14.8633L13.0176 13.8633L18.1031 13.8633L18.1031 14.8633Z" fill="currentColor" fill-rule="evenodd"/>
	<path d="M18.1031 7.74341L13.0176 7.74341L13.0176 6.74341L18.1031 6.74341L18.1031 7.74341Z" fill="currentColor" fill-rule="evenodd"/>
	<path d="M6.80781 1.00005L0 1L7.62948e-06 0L6.80782 5.19454e-05L6.80781 1.00005Z" fill="currentColor" fill-rule="evenodd" transform="matrix(0.707107,0.707107,-0.707107,0.707107,5.23444,12.3499)"/>
	<path d="M9.96642 7.74341L4.88086 7.74341L4.88086 6.74341L9.96642 6.74341L9.96642 7.74341Z" fill="currentColor" fill-rule="evenodd"/>
	<path d="M5.08556 1L0 1L0 0L5.08556 0L5.08556 1Z" fill="currentColor" fill-rule="evenodd" transform="matrix(6.12323e-17,-1,1,6.12323e-17,6.93213,9.77759)"/>
	<path d="M6.80789 1L0 1L0 0L6.80789 0L6.80789 1Z" fill="currentColor" fill-rule="evenodd" transform="matrix(0.707107,-0.707107,0.707107,0.707107,4.52728,17.1638)"/>
	<path d="M18.1031 16.8972L13.0176 16.8972L13.0176 15.8972L18.1031 15.8972L18.1031 16.8972Z" fill="currentColor" fill-rule="evenodd"/>
  </symbol>

  <symbol id="icon-nav-menu-search" viewBox="0 0 10.8188 12.8506" fill="none">
	<circle cx="4.5" cy="4.5" r="4" stroke="currentColor" stroke-width="1.000000" transform="matrix(-1,0,0,1,9,0)"/>
	<path d="M0 0L6.38492 0.261685" stroke="currentColor" stroke-width="1.000000" transform="matrix(0.581238,0.813733,0.813733,-0.581238,6.50012,7.5)"/>
  </symbol>

  <symbol></symbol>
  <symbol></symbol>
  <symbol></symbol>
  <symbol></symbol>
  <symbol></symbol>
  <symbol></symbol>
  <symbol></symbol>
  <symbol></symbol>
</svg>